# xmcd CD database file
#
# Track frame offsets:
#	150
#	12902
#	35662
#	53432
#	73330
#	94490
#	108532
#	130542
#	149355
#	166745
#	179465
#	203672
#	221575
#	233935
#	249505
#	279410
#
# Disc length: 4043 seconds
#
# Revision: 0
# Processed by: cddbd v1.5.1PL0 Copyright (c) Steve Scherf et al.
# Submitted via: CDex 1.51
#
DISCID=e70fc910
DTITLE=Ballbearing Jazzband - One O'clock Jump
DYEAR=1900
DGENRE=Jazz
TTITLE0=Take Me Right Back To The Track, Jack
TTITLE1=Black And Tan Fantasy
TTITLE2=One O'clock Jump
TTITLE3=St. James Infirmary
TTITLE4=St. Louis Blues March
TTITLE5=Fly Me To The Moon
TTITLE6=Westend Blues
TTITLE7=Limeshouse Blues
TTITLE8=Do You Know What It Means To Miss New Orleans
TTITLE9=Mahogany Hall Stomp
TTITLE10=Blue Turning Grey Over You
TTITLE11=Apple Blossom Time
TTITLE12=Don't Ask Me
TTITLE13=I'm Crazy 'bout My Baby
TTITLE14=Lyn's Spin
TTITLE15=Ice Cream
EXTD=
EXTT0=
EXTT1=
EXTT2=
EXTT3=
EXTT4=
EXTT5=
EXTT6=
EXTT7=
EXTT8=
EXTT9=
EXTT10=
EXTT11=
EXTT12=
EXTT13=
EXTT14=
EXTT15=
PLAYORDER=
